<?xml version="1.0" standalone="no"?>
<!DOCTYPE svg PUBLIC "-//W3C//DTD SVG 20010904//EN"
 "http://www.w3.org/TR/2001/REC-SVG-20010904/DTD/svg10.dtd">
<svg version="1.0" xmlns="http://www.w3.org/2000/svg"
 width="500.000000pt" height="500.000000pt" viewBox="0 0 500.000000 500.000000"
 preserveAspectRatio="xMidYMid meet">

<g transform="translate(0.000000,500.000000) scale(0.100000,-0.100000)"
fill="#000000" stroke="none">
<path d="M0 2500 l0 -2500 2500 0 2500 0 0 2500 0 2500 -2500 0 -2500 0 0
-2500z m3800 1316 c0 -3 -197 -346 -438 -763 l-438 -758 -208 -3 c-183 -2
-208 -1 -202 13 3 8 150 265 326 570 176 305 323 562 326 570 6 14 -20 15
-207 13 l-214 -3 -120 -207 c-66 -115 -122 -208 -126 -208 -3 0 -52 79 -107
175 l-102 176 122 214 123 214 633 1 c347 0 632 -2 632 -4z m-2458 -85 c69
-40 133 -80 140 -89 10 -12 999 -1719 1012 -1748 1 -1 42 4 91 12 50 7 97 14
107 14 12 0 -11 -47 -85 -175 -55 -96 -103 -175 -106 -175 -3 0 -109 179 -235
398 -126 218 -417 722 -647 1119 -229 398 -414 721 -411 720 4 -2 64 -36 134
-76z"/>
</g>
</svg>
